HIERARCHY
ROOT Hips
{
	OFFSET 12.274321 99.969612 -113.809723
	CHANNELS 6 Xposition Yposition Zposition Xrotation Yrotation Zrotation
	JOINT LeftUpLeg
	{
		OFFSET 8.910002 -6.269997 0.000000
		CHANNELS 6 Xposition Yposition Zposition Xrotation Yrotation Zrotation
		JOINT LeftLeg
		{
			OFFSET -0.103842 -44.878361 -0.122574
			CHANNELS 6 Xposition Yposition Zposition Xrotation Yrotation Zrotation
			JOINT LeftFoot
			{
				OFFSET -0.094175 -40.700405 -0.191460
				CHANNELS 6 Xposition Yposition Zposition Xrotation Yrotation Zrotation
				JOINT LeftToeBase
				{
					OFFSET 0.000008 -6.262320 12.954727
					CHANNELS 6 Xposition Yposition Zposition Xrotation Yrotation Zrotation
					JOINT LeftToeBaseEnd
					{
						OFFSET -0.000135 -0.000000 8.000000
						CHANNELS 6 Xposition Yposition Zposition Xrotation Yrotation Zrotation
						End Site
						{
							OFFSET 0.000639 8.000002 0.000000
						}
					}
				}
			}
		}
	}
	JOINT RightUpLeg
	{
		OFFSET -8.910001 -6.269997 0.000000
		CHANNELS 6 Xposition Yposition Zposition Xrotation Yrotation Zrotation
		JOINT RightLeg
		{
			OFFSET -0.101007 -44.878124 0.191986
			CHANNELS 6 Xposition Yposition Zposition Xrotation Yrotation Zrotation
			JOINT RightFoot
			{
				OFFSET -0.091601 -40.700821 -0.052887
				CHANNELS 6 Xposition Yposition Zposition Xrotation Yrotation Zrotation
				JOINT RightToeBase
				{
					OFFSET -0.001086 -6.262319 12.954750
					CHANNELS 6 Xposition Yposition Zposition Xrotation Yrotation Zrotation
					JOINT RightToeBaseEnd
					{
						OFFSET -0.000851 -0.000407 8.000000
						CHANNELS 6 Xposition Yposition Zposition Xrotation Yrotation Zrotation
						End Site
						{
							OFFSET 0.000058 8.000002 0.000404
						}
					}
				}
			}
		}
	}
	JOINT Spine
	{
		OFFSET 0.000000 7.000000 0.000000
		CHANNELS 6 Xposition Yposition Zposition Xrotation Yrotation Zrotation
		JOINT Spine1
		{
			OFFSET -0.023388 12.548241 -1.727875
			CHANNELS 3 Xrotation Yrotation Zrotation
			JOINT Spine2
			{
				OFFSET -0.011827 12.636490 -0.873764
				CHANNELS 3 Xrotation Yrotation Zrotation
				JOINT LeftShoulder
				{
					OFFSET 6.999763 14.255325 -0.017601
					CHANNELS 6 Xposition Yposition Zposition Xrotation Yrotation Zrotation
					JOINT LeftArm
					{
						OFFSET 10.707253 0.000320 0.000000
						CHANNELS 6 Xposition Yposition Zposition Xrotation Yrotation Zrotation
						JOINT LeftForeArm
						{
							OFFSET 27.305473 0.000443 0.000008
							CHANNELS 6 Xposition Yposition Zposition Xrotation Yrotation Zrotation
							JOINT LeftHand
							{
								OFFSET 26.697151 0.000443 -0.000008
								CHANNELS 6 Xposition Yposition Zposition Xrotation Yrotation Zrotation
								JOINT LeftHandThumb1
								{
									OFFSET 4.348778 -0.793137 4.283417
									CHANNELS 6 Xposition Yposition Zposition Xrotation Yrotation Zrotation
									JOINT LeftHandThumb2
									{
										OFFSET 2.512596 -0.535187 0.708115
										CHANNELS 6 Xposition Yposition Zposition Xrotation Yrotation Zrotation
										JOINT LeftHandThumb3
										{
											OFFSET 2.543137 0.000046 0.000008
											CHANNELS 6 Xposition Yposition Zposition Xrotation Yrotation Zrotation
											JOINT LeftHandThumb4
											{
												OFFSET 2.666748 0.000061 -0.000008
												CHANNELS 6 Xposition Yposition Zposition Xrotation Yrotation Zrotation
												End Site
												{
													OFFSET -0.000061 2.666748 -0.003296
												}
											}
										}
									}
								}
								JOINT LeftHandIndex1
								{
									OFFSET 8.821976 0.204178 3.471420
									CHANNELS 6 Xposition Yposition Zposition Xrotation Yrotation Zrotation
									JOINT LeftHandIndex2
									{
										OFFSET 4.225319 0.000076 -0.000259
										CHANNELS 6 Xposition Yposition Zposition Xrotation Yrotation Zrotation
										JOINT LeftHandIndex3
										{
											OFFSET 2.652321 -0.000076 -0.092789
											CHANNELS 6 Xposition Yposition Zposition Xrotation Yrotation Zrotation
											JOINT LeftHandIndex4
											{
												OFFSET 1.953438 -0.000137 -0.136719
												CHANNELS 6 Xposition Yposition Zposition Xrotation Yrotation Zrotation
												End Site
												{
													OFFSET -0.000046 1.958221 -0.002419
												}
											}
										}
									}
								}
								JOINT LeftHandMiddle1
								{
									OFFSET 8.809875 0.502655 1.304062
									CHANNELS 6 Xposition Yposition Zposition Xrotation Yrotation Zrotation
									JOINT LeftHandMiddle2
									{
										OFFSET 4.863251 0.000076 0.000000
										CHANNELS 6 Xposition Yposition Zposition Xrotation Yrotation Zrotation
										JOINT LeftHandMiddle3
										{
											OFFSET 2.765236 0.000046 -0.000175
											CHANNELS 6 Xposition Yposition Zposition Xrotation Yrotation Zrotation
											JOINT LeftHandMiddle4
											{
												OFFSET 2.005630 0.000031 -0.000252
												CHANNELS 6 Xposition Yposition Zposition Xrotation Yrotation Zrotation
												End Site
												{
													OFFSET -0.000031 2.005630 -0.002480
												}
											}
										}
									}
								}
								JOINT LeftHandRing1
								{
									OFFSET 8.893753 0.379105 -0.793625
									CHANNELS 6 Xposition Yposition Zposition Xrotation Yrotation Zrotation
									JOINT LeftHandRing2
									{
										OFFSET 4.537758 0.000076 -0.000282
										CHANNELS 6 Xposition Yposition Zposition Xrotation Yrotation Zrotation
										JOINT LeftHandRing3
										{
											OFFSET 2.304527 0.000046 -0.000290
											CHANNELS 6 Xposition Yposition Zposition Xrotation Yrotation Zrotation
											JOINT LeftHandRing4
											{
												OFFSET 1.923347 0.000031 -0.000359
												CHANNELS 6 Xposition Yposition Zposition Xrotation Yrotation Zrotation
												End Site
												{
													OFFSET -0.000031 1.923340 -0.002373
												}
											}
										}
									}
								}
								JOINT LeftHandPinky1
								{
									OFFSET 8.882286 -0.315948 -2.489967
									CHANNELS 6 Xposition Yposition Zposition Xrotation Yrotation Zrotation
									JOINT LeftHandPinky2
									{
										OFFSET 3.044098 0.000046 0.000000
										CHANNELS 6 Xposition Yposition Zposition Xrotation Yrotation Zrotation
										JOINT LeftHandPinky3
										{
											OFFSET 1.974503 0.000000 0.000000
											CHANNELS 6 Xposition Yposition Zposition Xrotation Yrotation Zrotation
											JOINT LeftHandPinky4
											{
												OFFSET 1.666611 -0.000015 0.000000
												CHANNELS 6 Xposition Yposition Zposition Xrotation Yrotation Zrotation
												End Site
												{
													OFFSET 0.000038 1.666611 -0.002060
												}
											}
										}
									}
								}
							}
						}
					}
				}
				JOINT RightShoulder
				{
					OFFSET -7.000239 14.255096 -0.017601
					CHANNELS 6 Xposition Yposition Zposition Xrotation Yrotation Zrotation
					JOINT RightArm
					{
						OFFSET -10.707277 0.000244 0.000000
						CHANNELS 6 Xposition Yposition Zposition Xrotation Yrotation Zrotation
						JOINT RightForeArm
						{
							OFFSET -27.305599 -0.000458 0.000000
							CHANNELS 6 Xposition Yposition Zposition Xrotation Yrotation Zrotation
							JOINT RightHand
							{
								OFFSET -26.696995 0.002319 -0.000008
								CHANNELS 6 Xposition Yposition Zposition Xrotation Yrotation Zrotation
								JOINT RightHandThumb1
								{
									OFFSET -4.348450 -0.792847 4.283798
									CHANNELS 6 Xposition Yposition Zposition Xrotation Yrotation Zrotation
									JOINT RightHandThumb2
									{
										OFFSET -2.512577 -0.534988 0.708336
										CHANNELS 6 Xposition Yposition Zposition Xrotation Yrotation Zrotation
										JOINT RightHandThumb3
										{
											OFFSET -2.541588 0.000336 0.088821
											CHANNELS 6 Xposition Yposition Zposition Xrotation Yrotation Zrotation
											JOINT RightHandThumb4
											{
												OFFSET -2.665123 0.000320 0.093140
												CHANNELS 6 Xposition Yposition Zposition Xrotation Yrotation Zrotation
												End Site
												{
													OFFSET 0.000183 2.666748 -0.003296
												}
											}
										}
									}
								}
								JOINT RightHandIndex1
								{
									OFFSET -8.821651 0.204773 3.472191
									CHANNELS 6 Xposition Yposition Zposition Xrotation Yrotation Zrotation
									JOINT RightHandIndex2
									{
										OFFSET -4.225319 0.000366 0.000114
										CHANNELS 6 Xposition Yposition Zposition Xrotation Yrotation Zrotation
										JOINT RightHandIndex3
										{
											OFFSET -2.652321 0.000351 0.092697
											CHANNELS 6 Xposition Yposition Zposition Xrotation Yrotation Zrotation
											JOINT RightHandIndex4
											{
												OFFSET -1.953445 0.000336 0.136658
												CHANNELS 6 Xposition Yposition Zposition Xrotation Yrotation Zrotation
												End Site
												{
													OFFSET 0.000168 1.958221 -0.002419
												}
											}
										}
									}
								}
								JOINT RightHandMiddle1
								{
									OFFSET -8.809727 0.503265 1.304840
									CHANNELS 6 Xposition Yposition Zposition Xrotation Yrotation Zrotation
									JOINT RightHandMiddle2
									{
										OFFSET -4.863251 0.000427 0.000130
										CHANNELS 6 Xposition Yposition Zposition Xrotation Yrotation Zrotation
										JOINT RightHandMiddle3
										{
											OFFSET -2.763550 0.000366 0.096581
											CHANNELS 6 Xposition Yposition Zposition Xrotation Yrotation Zrotation
											JOINT RightHandMiddle4
											{
												OFFSET -2.000740 0.000351 0.139961
												CHANNELS 6 Xposition Yposition Zposition Xrotation Yrotation Zrotation
												End Site
												{
													OFFSET 0.000175 2.005630 -0.002480
												}
											}
										}
									}
								}
								JOINT RightHandRing1
								{
									OFFSET -8.893795 0.379715 -0.792847
									CHANNELS 6 Xposition Yposition Zposition Xrotation Yrotation Zrotation
									JOINT RightHandRing2
									{
										OFFSET -4.537766 0.000397 0.000122
										CHANNELS 6 Xposition Yposition Zposition Xrotation Yrotation Zrotation
										JOINT RightHandRing3
										{
											OFFSET -2.303116 0.000290 0.080490
											CHANNELS 6 Xposition Yposition Zposition Xrotation Yrotation Zrotation
											JOINT RightHandRing4
											{
												OFFSET -1.918663 0.000336 0.134224
												CHANNELS 6 Xposition Yposition Zposition Xrotation Yrotation Zrotation
												End Site
												{
													OFFSET 0.000160 1.923355 -0.002373
												}
											}
										}
									}
								}
								JOINT RightHandPinky1
								{
									OFFSET -8.882519 -0.315338 -2.489189
									CHANNELS 6 Xposition Yposition Zposition Xrotation Yrotation Zrotation
									JOINT RightHandPinky2
									{
										OFFSET -3.047798 0.000259 0.000084
										CHANNELS 6 Xposition Yposition Zposition Xrotation Yrotation Zrotation
										JOINT RightHandPinky3
										{
											OFFSET -1.975693 0.000244 0.069046
											CHANNELS 6 Xposition Yposition Zposition Xrotation Yrotation Zrotation
											JOINT RightHandPinky4
											{
												OFFSET -1.664574 0.000320 0.116447
												CHANNELS 6 Xposition Yposition Zposition Xrotation Yrotation Zrotation
												End Site
												{
													OFFSET 0.000214 1.668640 -0.002068
												}
											}
										}
									}
								}
							}
						}
					}
				}
				JOINT Neck
				{
					OFFSET -0.000212 12.666656 -0.015640
					CHANNELS 6 Xposition Yposition Zposition Xrotation Yrotation Zrotation
					JOINT Head
					{
						OFFSET 0.011088 9.988190 0.485672
						CHANNELS 3 Xrotation Yrotation Zrotation
						JOINT HeadEnd
						{
							OFFSET 0.000000 20.000000 0.000000
							CHANNELS 3 Xrotation Yrotation Zrotation
							End Site
							{
								OFFSET 0.000000 20.000000 0.000000
							}
						}
					}
				}
			}
		}
	}
}
MOTION
Frames: 3
Frame Time: 0.008333
12.274321 99.969612 -113.809723 -0.000000 0.000000 -0.000000 8.910002 -6.269997 -0.000000 0.000000 -0.000000 -0.000000 -0.103842 -44.878361 -0.122574 0.000000 0.000000 0.000000 -0.094175 -40.700405 -0.191460 0.000000 0.000000 -0.000000 0.000008 -6.262320 12.954727 0.000000 -0.000000 0.000000 -0.000135 -0.000000 8.000000 -0.000000 -0.000000 0.000000 -8.910002 -6.270004 0.000008 -0.000000 0.000000 -0.000000 -0.101008 -44.878136 0.192009 -0.000000 0.000000 0.000000 -0.091601 -40.700813 -0.052872 0.000000 0.000000 0.000000 -0.001086 -6.262319 12.954750 -0.000000 0.000000 -0.000000 -0.000851 -0.000407 8.000000 -0.000000 -0.000000 -0.000000 0.000000 7.000007 0.000016 -0.000000 0.000000 -0.000000 -0.000000 0.000000 -0.000000 0.000000 -0.000000 -0.000000 6.999763 14.255310 -0.017624 0.000000 0.000000 0.000000 10.707256 0.000320 -0.000023 0.000000 -0.000000 0.000000 27.305477 0.000458 -0.000008 0.000000 -0.000000 0.000000 26.697151 0.000458 -0.000023 0.000000 -0.000000 0.000000 4.348763 -0.793137 4.283401 0.000000 -0.000000 0.000000 2.512604 -0.535187 0.708107 0.000000 -0.000000 -0.000000 2.543137 0.000061 -0.000000 0.000000 0.000000 0.000000 2.666763 0.000092 -0.000015 0.000000 -0.000000 0.000000 8.821960 0.204178 3.471397 0.000000 -0.000000 -0.000000 4.225335 0.000076 -0.000267 0.000000 -0.000000 -0.000000 2.652335 -0.000061 -0.092788 -0.000000 0.000001 -0.000000 1.953452 -0.000122 -0.136720 0.000000 0.000000 -0.000000 8.809860 0.502655 1.304039 0.000000 -0.000000 0.000000 4.863266 0.000076 -0.000023 -0.000000 -0.000000 -0.000000 2.765251 0.000046 -0.000198 0.000000 -0.000000 0.000000 2.005661 0.000046 -0.000259 -0.000000 0.000000 0.000000 8.893738 0.379105 -0.793648 0.000000 -0.000000 0.000000 4.537773 0.000061 -0.000305 -0.000000 -0.000000 0.000000 2.304543 0.000046 -0.000313 -0.000000 0.000000 0.000000 1.923363 0.000061 -0.000381 -0.000000 0.000000 0.000000 8.882271 -0.315948 -2.489983 0.000000 -0.000000 0.000000 3.044106 0.000092 -0.000008 -0.000000 -0.000000 0.000000 1.974503 0.000031 -0.000008 0.000000 0.000000 0.000000 1.666618 0.000000 -0.000008 0.000000 -0.000000 -0.000000 -7.000238 14.255112 -0.017624 0.000000 -0.000000 0.000000 -10.707278 0.000275 -0.000015 0.000000 -0.000000 0.000000 -27.305603 -0.000427 -0.000000 0.000000 0.000000 0.000000 -26.697002 0.002365 -0.000000 0.000000 0.000000 -0.000000 -4.348457 -0.792831 4.283798 0.000000 0.000000 -0.000000 -2.512577 -0.534988 0.708336 0.000000 0.000000 -0.000000 -2.541588 0.000336 0.088821 0.000000 0.000000 -0.000000 -2.665138 0.000336 0.093132 0.000000 0.000000 0.000000 -8.821659 0.204803 3.472191 0.000000 0.000000 -0.000000 -4.225311 0.000366 0.000122 0.000000 -0.000000 0.000000 -2.652297 0.000336 0.092712 0.000000 -0.000001 0.000000 -1.953422 0.000305 0.136657 0.000000 -0.000000 -0.000000 -8.809727 0.503296 1.304840 0.000000 0.000000 0.000000 -4.863251 0.000427 0.000137 0.000000 -0.000000 0.000000 -2.763543 0.000366 0.096581 0.000000 0.000000 0.000000 -2.000738 0.000320 0.139962 0.000000 -0.000001 -0.000000 -8.893795 0.379746 -0.792847 0.000000 0.000000 -0.000000 -4.537757 0.000397 0.000114 0.000000 -0.000000 -0.000000 -2.303114 0.000320 0.080468 0.000000 -0.000001 -0.000000 -1.918662 0.000351 0.134209 0.000000 -0.000000 0.000000 -8.882519 -0.315323 -2.489182 0.000000 0.000000 -0.000000 -3.047791 0.000275 0.000084 0.000000 0.000000 0.000000 -1.975686 0.000259 0.069046 0.000000 0.000000 -0.000000 -1.664565 0.000336 0.116455 0.000000 -0.000001 -0.000000 -0.000211 12.666656 -0.015663 0.000000 -0.000000 0.000000 -0.000000 -0.000000 0.000000 -0.000000 0.000000 -0.000000 
12.310696 99.953636 -113.631493 0.007154 -0.001241 -0.000172 8.910004 -6.269992 0.000007 1.080603 0.751014 2.639632 -0.103836 -44.878357 -0.122584 0.373388 -0.091380 0.039627 -0.094173 -40.700401 -0.191465 -1.227821 1.670756 -3.031092 0.000003 -6.262320 12.954726 -0.005191 0.000000 -0.000000 -0.000134 0.000000 8.000000 0.000000 0.000000 -0.000000 -8.910002 -6.269993 0.000003 1.182502 -0.144068 -3.262028 -0.101008 -44.878120 0.191988 -0.063880 0.072830 0.032967 -0.091602 -40.700817 -0.052895 -0.698040 -1.828320 3.933159 -0.001086 -6.262319 12.954754 -0.013997 0.000000 -0.000001 -0.000851 -0.000407 8.000008 -0.000000 -0.000000 -0.000000 -0.000001 6.999996 0.000024 -0.546550 0.007560 0.119301 0.258355 -0.005627 -0.059943 0.258354 -0.001663 -0.060165 6.999765 14.255311 -0.017605 -0.014807 0.000709 0.017402 10.707252 0.000339 -0.000013 -4.257448 -0.267370 0.018955 27.305479 0.000442 0.000015 0.005916 -1.879817 0.014114 26.697159 0.000408 0.000006 0.492770 8.197913 -5.358001 4.348792 -0.793152 4.283412 2.277744 1.037374 -5.583717 2.512628 -0.535183 0.708124 -0.124684 1.372359 -0.086603 2.543145 0.000040 0.000018 -0.124682 1.372360 -0.086607 2.666773 0.000073 -0.000018 -0.124682 1.372358 -0.086600 8.821978 0.204189 3.471417 -0.371467 -2.164084 -2.733194 4.225321 0.000058 -0.000245 -0.033159 -0.010022 -1.380308 2.652329 -0.000090 -0.092777 -0.033165 -0.010025 -1.380389 1.953444 -0.000131 -0.136728 -0.033155 -0.010027 -1.380390 8.809895 0.502665 1.304041 -0.174263 -0.776061 -2.750444 4.863248 0.000068 -0.000001 -0.033162 -0.010022 -1.380377 2.765244 0.000043 -0.000173 -0.033159 -0.010027 -1.380389 2.005649 0.000015 -0.000262 -0.033160 -0.010027 -1.380393 8.893761 0.379107 -0.793640 0.145623 1.467275 -2.770968 4.537766 0.000091 -0.000303 -0.033162 -0.010023 -1.380392 2.304539 0.000023 -0.000280 -0.033161 -0.010022 -1.380391 1.923345 0.000030 -0.000362 -0.033162 -0.010023 -1.380393 8.882299 -0.315968 -2.489968 0.393564 3.200309 -2.780603 3.044107 0.000086 -0.000024 -0.033161 -0.010029 -1.380390 1.974481 0.000021 0.000000 -0.033162 -0.010025 -1.380390 1.666616 0.000009 -0.000013 -0.033158 -0.010027 -1.380393 -7.000236 14.255106 -0.017611 0.005883 -0.007058 -0.044193 -10.707278 0.000262 0.000002 -5.494447 -0.473249 -0.666268 -27.305601 -0.000477 -0.000006 0.002419 1.416932 -0.001920 -26.696993 0.002328 -0.000020 -2.340628 -0.157388 -3.267183 -4.348464 -0.792843 4.283818 3.154640 -1.150103 6.775937 -2.512582 -0.535003 0.708348 -0.141478 -1.634742 0.101274 -2.541597 0.000346 0.088810 -0.141482 -1.634740 0.101274 -2.665133 0.000312 0.093135 -0.141479 -1.634742 0.101272 -8.821663 0.204798 3.472197 -0.304408 2.246385 3.279132 -4.225304 0.000333 0.000111 0.040496 0.004226 1.643593 -2.652311 0.000360 0.092707 0.040493 0.004231 1.643592 -1.953443 0.000319 0.136660 0.040497 0.004229 1.643591 -8.809738 0.503262 1.304839 -0.074724 0.912897 3.282798 -4.863263 0.000424 0.000140 0.040498 0.004226 1.643593 -2.763524 0.000397 0.096591 0.040493 0.004230 1.643592 -2.000713 0.000335 0.139973 0.040496 0.004230 1.643594 -8.893804 0.379724 -0.792834 0.146979 -0.375354 3.282717 -4.537770 0.000399 0.000132 0.040495 0.004228 1.643572 -2.303117 0.000328 0.080486 0.040495 0.004226 1.643592 -1.918654 0.000342 0.134228 0.040493 0.004227 1.643594 -8.882538 -0.315333 -2.489187 0.587459 -2.939669 3.271920 -3.047784 0.000252 0.000085 0.040492 0.004228 1.643298 -1.975671 0.000271 0.069046 0.040486 0.004226 1.643593 -1.664570 0.000320 0.116450 0.040497 0.004231 1.643592 -0.000211 12.666654 -0.015649 0.002204 -0.007604 0.003163 0.001145 -0.010825 0.001753 0.000000 0.000000 0.000000 
12.465349 99.888992 -112.892487 0.035197 0.005583 0.012735 8.910000 -6.269988 0.000006 5.046950 4.239124 13.059861 -0.103843 -44.878361 -0.122573 1.872837 -0.454399 0.204115 -0.094172 -40.700405 -0.191475 -5.266115 8.925111 -14.895931 0.000003 -6.262321 12.954705 -0.008896 0.000000 -0.000000 -0.000136 0.000000 8.000000 0.000000 0.000000 0.000000 -8.910005 -6.269994 0.000011 5.789848 -1.392327 -16.311364 -0.101006 -44.878128 0.192013 -0.288153 0.365384 0.165527 -0.091601 -40.700821 -0.052878 -2.242269 -9.523987 19.648798 -0.001085 -6.262319 12.954745 -0.042731 0.000001 -0.000004 -0.000849 -0.000406 8.000000 -0.000000 0.000002 -0.000000 -0.000001 7.000006 0.000008 -2.760870 0.028064 0.619521 1.295174 -0.033036 -0.315423 1.295222 -0.011693 -0.316863 6.999760 14.255328 -0.017616 -0.053578 -0.002211 0.080083 10.707257 0.000321 -0.000003 -21.116355 -1.317847 -0.140428 27.305477 0.000434 0.000011 0.034410 -9.375075 0.072997 26.697147 0.000462 -0.000010 13.354380 39.471708 -34.428986 4.348805 -0.793139 4.283388 12.144662 2.832493 -28.385069 2.512589 -0.535198 0.708103 -0.605229 6.865537 -0.404816 2.543136 0.000057 0.000013 -0.605220 6.865549 -0.404819 2.666731 0.000065 -0.000017 -0.605221 6.865538 -0.404811 8.821980 0.204188 3.471409 -2.914356 -10.584677 -13.966839 4.225337 0.000073 -0.000243 -0.167974 -0.042057 -6.903586 2.652327 -0.000063 -0.092774 -0.168000 -0.042062 -6.904011 1.953436 -0.000140 -0.136715 -0.167949 -0.042078 -6.904007 8.809898 0.502666 1.304036 -1.240291 -3.774433 -13.809738 4.863238 0.000105 -0.000017 -0.167982 -0.042053 -6.903943 2.765259 0.000078 -0.000188 -0.167972 -0.042076 -6.904009 2.005635 0.000022 -0.000256 -0.167976 -0.042073 -6.904023 8.893771 0.379106 -0.793643 1.441508 7.224540 -13.975787 4.537765 0.000071 -0.000282 -0.167980 -0.042060 -6.904019 2.304540 0.000046 -0.000307 -0.167973 -0.042060 -6.904019 1.923360 0.000040 -0.000364 -0.167986 -0.042055 -6.904012 8.882286 -0.315974 -2.489982 3.611347 15.729471 -14.474470 3.044114 0.000072 -0.000012 -0.167978 -0.042087 -6.904014 1.974487 0.000010 0.000002 -0.167978 -0.042064 -6.904024 1.666623 -0.000002 0.000011 -0.167970 -0.042079 -6.904014 -7.000239 14.255075 -0.017603 0.021920 -0.041249 -0.337683 -10.707277 0.000253 -0.000012 -27.648500 -1.625449 -3.677228 -27.305601 -0.000447 0.000031 0.012138 6.819812 -0.009807 -26.696993 0.002336 -0.000010 -12.114613 -1.025699 -14.158181 -4.348436 -0.792858 4.283792 16.602583 -1.802594 34.521166 -2.512581 -0.535024 0.708342 -0.682572 -8.179374 0.468723 -2.541594 0.000358 0.088830 -0.682587 -8.179369 0.468722 -2.665129 0.000305 0.093136 -0.682572 -8.179373 0.468715 -8.821653 0.204767 3.472209 -2.832927 10.969187 16.729363 -4.225325 0.000355 0.000128 0.200849 0.032694 8.221315 -2.652311 0.000362 0.092695 0.200849 0.032720 8.221308 -1.953434 0.000329 0.136661 0.200842 0.032712 8.221311 -8.809721 0.503274 1.304851 -0.894902 4.484555 16.483680 -4.863266 0.000412 0.000138 0.200850 0.032700 8.221315 -2.763526 0.000365 0.096585 0.200840 0.032721 8.221306 -2.000749 0.000330 0.139984 0.200834 0.032719 8.221321 -8.893792 0.379701 -0.792831 0.943836 -1.777254 16.454945 -4.537773 0.000392 0.000120 0.200843 0.032709 8.221214 -2.303128 0.000313 0.080467 0.200847 0.032702 8.221305 -1.918657 0.000348 0.134215 0.200838 0.032700 8.221313 -8.882523 -0.315341 -2.489175 4.696591 -14.245756 17.010818 -3.047802 0.000283 0.000099 0.200820 0.032707 8.219835 -1.975693 0.000281 0.069066 0.200809 0.032694 8.221313 -1.664566 0.000351 0.116468 0.200844 0.032718 8.221311 -0.000214 12.666654 -0.015646 -0.021433 -0.051054 0.012060 -0.042933 -0.080424 0.081451 0.000000 -0.000000 0.000000 
